# xmcd CD database file
#
# Track frame offsets:
#	150
#	11360
#	25760
#	39937
#	50632
#	60382
#	69940
#	84520
#	97727
#	109355
#
# Disc length: 1608 seconds
#
# Revision: 0
# Processed by: cddbd v1.5.2PL0 Copyright (c) Steve Scherf et al.
# Submitted via: jetAudio 7
#
DISCID=6d06460a
DTITLE=Various Artist - Country Music Cavalcade [CD2]
DYEAR=1900
DGENRE=Country
TTITLE0=Wheels
TTITLE1=Battle Hymn Of The Republic
TTITLE2=Yesterday
TTITLE3=San Antonio Rose
TTITLE4=On The Rebound
TTITLE5=Lovesick Blues
TTITLE6=Yellow Bird
TTITLE7=Maria Elena
TTITLE8=Love Is Blue
TTITLE9=Spanish Harlem
EXTD=
EXTT0=
EXTT1=
EXTT2=
EXTT3=
EXTT4=
EXTT5=
EXTT6=
EXTT7=
EXTT8=
EXTT9=
PLAYORDER=
